<svg width="275" height="265" viewBox="0 0 275 265" fill="none" xmlns="http://www.w3.org/2000/svg">
    <g clip-path="url(#clip0_26_28677)">
        <g style="mix-blend-mode:overlay" opacity="0.18">
            <path d="M91.5746 185.837C88.0028 186.683 79.6802 191.598 79.4672 195.628C80.9915 190.018 79.7076 185.12 85.1198 181.334" fill="url(#paint0_linear_26_28677)"/>
        </g>
        <path d="M92.6194 188.321C89.1932 189.621 87.2251 194.491 89.9995 197.632C86.9733 186.814 105.664 189.112 110.092 186.184C103.846 188.489 94.5442 187.367 89.4771 191.99" fill="url(#paint1_linear_26_28677)"/>
        <path d="M86.6737 146.648C81.8312 149.177 77.9762 153.256 75.725 158.233C72.9922 164.132 73.6561 171.406 70.0406 176.993C68.3734 179.501 67.0197 181.701 64.196 183.008C67.1728 180.675 70.7612 178.339 73.0197 175.254C75.1203 172.025 75.7663 167.309 76.552 163.578C77.9923 155.157 81.3493 145.703 90.9861 145.358" fill="url(#paint2_linear_26_28677)"/>
        <path d="M75.3978 171.771C74.4645 176.725 72.2337 181.343 68.933 185.153C65.6323 188.964 61.3799 191.83 56.6096 193.461C66.0472 194.272 75.4214 191.307 82.6753 185.215C78.1655 190.731 79.4284 193.527 79.4284 193.527C83.8978 183.651 103.362 185.737 112.68 183.793C121.998 181.849 126.348 173.93 126.232 165.944C126.202 164.756 126.055 163.573 125.793 162.412C124.922 163.564 123.81 164.512 122.536 165.189C121.261 165.867 119.854 166.258 118.412 166.336C118.412 166.336 122.094 164.365 122.96 161.344C122.96 161.344 122.173 160.361 120.018 161.312C120.106 160.884 120.26 160.473 120.475 160.094C120.772 159.349 121.145 158.638 121.588 157.97C120.452 158.977 118.141 160.396 113.695 160.958C113.695 160.958 119.12 160.017 120.069 156.722C120.182 155.707 120.1 154.681 119.828 153.697C119.48 154.276 118.994 154.759 118.413 155.103C117.832 155.448 117.175 155.643 116.501 155.672C114.025 155.919 110.081 155.973 108.216 158.708C108.216 158.708 109.294 151.835 115.095 150.525C113.845 150.362 112.573 150.467 111.366 150.834C110.16 151.201 109.045 151.822 108.097 152.654C108.097 152.654 111.681 149.149 113.585 149.303C113.585 149.303 108.727 146.237 104.764 147.203C104.764 147.203 107.716 146.314 108.183 144.946C108.183 144.946 103.426 143.971 100.292 145.23C101.074 144.305 102.056 143.569 103.164 143.077C104.271 142.586 105.476 142.353 106.687 142.394C102.618 141.031 98.2458 140.857 94.0818 141.892C82.9337 145.871 79.0389 154.273 75.3978 171.771Z" fill="url(#paint3_linear_26_28677)"/>
        <path d="M84.2165 173.278C83.8474 175.749 83.1036 178.149 82.0108 180.396C92.9116 176.343 94.6616 168.758 94.6616 168.758C95.3628 172.666 92.9109 180.41 92.9109 180.41C99.5942 173.873 112.104 178.133 119.714 171.969C122.048 170.019 123.578 167.274 124.009 164.263C122.44 165.534 120.501 166.262 118.483 166.337C118.483 166.337 122.165 164.366 123.031 161.345C123.031 161.345 122.244 160.362 120.089 161.312C120.175 160.889 120.326 160.481 120.537 160.103C120.837 159.356 121.213 158.641 121.659 157.971C120.523 158.978 118.212 160.397 113.766 160.959C113.766 160.959 119.191 160.018 120.14 156.723C120.253 155.708 120.171 154.682 119.899 153.698C119.551 154.276 119.064 154.76 118.484 155.104C117.903 155.449 117.246 155.644 116.571 155.673C114.096 155.92 110.152 155.974 108.287 158.709C108.287 158.709 109.365 151.835 115.166 150.526C113.915 150.362 112.644 150.468 111.437 150.835C110.23 151.202 109.116 151.823 108.168 152.655C108.168 152.655 111.752 149.15 113.656 149.304C113.656 149.304 108.798 146.237 104.835 147.204C104.835 147.204 107.44 146.408 108.127 145.193C103.195 145.299 98.4002 146.834 94.3242 149.613C85.7788 157.042 84.8112 169.19 84.2165 173.278Z" fill="url(#paint4_linear_26_28677)"/>
        <path d="M81.9972 180.83C84.5887 178.362 86.5104 175.276 87.582 171.862C89.5864 164.519 89.2883 154.626 93.0555 151.345C93.0555 151.345 86.6784 155.829 84.9054 167.888C83.5942 176.656 82.7184 179.721 81.9972 180.83ZM91.0728 164.731C91.6618 161.157 91.9914 156.207 98.5042 151.467C103.623 147.74 108.776 148.958 112.625 149.505C112.939 149.381 113.274 149.322 113.611 149.33C113.611 149.33 108.753 146.263 104.79 147.23C105.841 146.907 106.824 146.392 107.687 145.711C104.367 145.822 101.128 146.761 98.263 148.442C90.3885 152.901 91.0728 164.731 91.0728 164.731ZM77.5109 164.217C77.5109 164.217 73.1548 178.26 71.1377 181.95C69.1206 185.641 65.2451 189.905 56.6096 193.461C56.6096 193.461 68.1709 192.18 71.4613 185.543C74.7517 178.906 76.0957 168.774 77.5109 164.217ZM109.314 151.622C109.162 151.771 109.018 151.911 108.893 152.034L109.314 151.622ZM93.3485 180.105C93.3485 180.105 96.8269 176.492 107.609 175.921C116.884 175.421 121.993 171.037 124.157 166.923C122.787 168.801 121.004 170.339 118.945 171.42C116.887 172.5 114.608 173.093 112.284 173.154C105.176 173.2 98.1999 174.15 93.411 180.061L93.3485 180.105ZM103.736 164.809C105.327 161.184 111.752 161.982 116.923 159.957C117.633 159.676 118.277 159.25 118.814 158.707C119.351 158.163 119.769 157.515 120.042 156.801C120.155 155.787 120.073 154.76 119.8 153.777C119.452 154.355 118.966 154.838 118.385 155.183C117.805 155.528 117.148 155.723 116.473 155.751C113.998 155.999 110.054 156.053 108.189 158.788C108.189 158.788 109.267 151.914 115.068 150.605C113.886 150.455 112.686 150.542 111.539 150.861C110.391 151.18 109.318 151.725 108.383 152.463C103.92 156.986 103.789 164.756 103.789 164.756L103.736 164.809ZM95.3367 176.618C97.2367 174.524 98.645 172.033 99.4585 169.326C100.964 164.575 103.061 158.545 103.061 158.545C97.3506 165.217 95.3905 176.565 95.3905 176.565L95.3367 176.618Z" fill="url(#paint5_linear_26_28677)"/>
    </g>
    <path fill-rule="evenodd" clip-rule="evenodd" d="M115.629 68.3247C115.629 68.3247 119.035 90.3826 127.946 101.883L126.6 104.789C126.6 104.789 112.998 84.8936 113.742 65.2109L115.629 68.3247Z" fill="url(#paint6_linear_26_28677)"/>
    <path fill-rule="evenodd" clip-rule="evenodd" d="M34.5054 135.031L40.0113 134.214C40.0113 134.214 77.028 105.241 109.614 93.5653L109.561 88.8838C109.561 88.8838 52.2394 114.635 34.5054 135.031Z" fill="url(#paint7_linear_26_28677)"/>
    <path fill-rule="evenodd" clip-rule="evenodd" d="M126.6 104.789C120.753 92.1554 116.436 78.8686 113.742 65.2108C110.481 63.3534 106.949 62.0188 103.275 61.2557C103.275 61.2557 48.3891 95.638 29.7669 129.17L34.5055 135.031C34.5055 135.031 71.0647 106.077 109.281 91.9089C109.281 91.9089 110.372 99.1318 116.014 113.348L126.6 104.789Z" fill="url(#paint8_radial_26_28677)"/>
    <path style="mix-blend-mode:multiply" opacity="0.5" fill-rule="evenodd" clip-rule="evenodd" d="M71.598 94.0155C78.0705 100.013 61.6968 109.205 59.0414 105.561C56.3859 101.917 62.0135 85.1431 71.598 94.0155Z" fill="url(#paint9_linear_26_28677)"/>
    <path style="mix-blend-mode:multiply" opacity="0.5" fill-rule="evenodd" clip-rule="evenodd" d="M53.1518 111.268C48.5212 120.27 36.4512 118.992 36.4512 118.992C40.8483 113.143 45.6969 107.647 50.9526 102.555C50.9526 102.555 56.7586 104.281 53.1518 111.268Z" fill="url(#paint10_linear_26_28677)"/>
    <path style="mix-blend-mode:multiply" opacity="0.5" fill-rule="evenodd" clip-rule="evenodd" d="M58.8145 111.184C60.223 113.256 57.7836 120.922 55.0563 111.376C54.4539 109.283 57.5795 109.372 58.8145 111.184Z" fill="url(#paint11_linear_26_28677)"/>
    <path style="mix-blend-mode:screen" opacity="0.91" fill-rule="evenodd" clip-rule="evenodd" d="M111.297 63.9405L103.147 62.9705C103.147 62.9705 79.2272 79.3422 68.8629 86.3773C79.8778 77.3964 91.3648 69.0106 103.275 61.2557C106.007 61.9667 108.687 62.8637 111.297 63.9405Z" fill="url(#paint12_linear_26_28677)"/>
    <path style="mix-blend-mode:multiply" opacity="0.71" fill-rule="evenodd" clip-rule="evenodd" d="M122.796 93.0115L120.391 90.0372C120.391 90.0372 115.267 93.8289 112.649 104.196L117.713 117.741L127.924 101.901C125.896 99.1339 124.176 96.1529 122.796 93.0115Z" fill="url(#paint13_linear_26_28677)"/>
    <path fill-rule="evenodd" clip-rule="evenodd" d="M195.504 167.114C195.504 167.114 174.648 159.165 165.262 148.036L162.14 148.744C162.14 148.744 178.746 166.211 198.148 169.604L195.504 167.114Z" fill="url(#paint14_linear_26_28677)"/>
    <path fill-rule="evenodd" clip-rule="evenodd" d="M113.285 232.465L115.236 227.252C115.236 227.252 151.317 197.122 169.558 167.703L174.124 168.736C174.124 168.736 136.942 219.395 113.285 232.465Z" fill="url(#paint15_linear_26_28677)"/>
    <path fill-rule="evenodd" clip-rule="evenodd" d="M162.145 148.751C173.274 157.114 185.363 164.117 198.154 169.612C199.287 173.189 199.853 176.922 199.83 180.675C199.83 180.675 154.717 227.145 118.029 238.333L113.29 232.472C113.29 232.472 149.257 202.786 171.113 168.384C171.113 168.384 164.279 165.805 151.56 157.31L162.145 148.751Z" fill="url(#paint16_radial_26_28677)"/>
    <path style="mix-blend-mode:multiply" opacity="0.5" fill-rule="evenodd" clip-rule="evenodd" d="M168.039 201.666C161.837 195.389 152.144 205.637 155.144 209.003C158.144 212.368 171.228 204.891 168.039 201.666Z" fill="url(#paint17_linear_26_28677)"/>
    <path style="mix-blend-mode:multiply" opacity="0.5" fill-rule="evenodd" clip-rule="evenodd" d="M140.431 219.215C130.665 221.865 129.387 233.935 129.387 233.935C136.025 230.856 142.412 227.263 148.491 223.19C148.491 223.19 148.024 217.158 140.431 219.215Z" fill="url(#paint18_linear_26_28677)"/>
    <path style="mix-blend-mode:multiply" opacity="0.5" fill-rule="evenodd" clip-rule="evenodd" d="M141.194 210.929C139.463 209.118 134.434 213.596 135.802 215.288C137.171 216.981 142.702 212.509 141.194 210.929Z" fill="url(#paint19_linear_26_28677)"/>
    <path style="mix-blend-mode:screen" opacity="0.91" fill-rule="evenodd" clip-rule="evenodd" d="M198.884 172.268L198.126 180.441C198.126 180.441 177.115 200.41 168.059 209.064C179.146 200.171 189.749 190.692 199.824 180.667C199.705 177.849 199.391 175.043 198.884 172.268Z" fill="url(#paint20_linear_26_28677)"/>
    <path style="mix-blend-mode:multiply" opacity="0.71" fill-rule="evenodd" clip-rule="evenodd" d="M172.865 154.937L174.784 157.311C170.866 160.293 166.356 162.404 161.555 163.5L147.332 155.543L162.175 148.728L172.865 154.937Z" fill="url(#paint21_linear_26_28677)"/>
    <path fill-rule="evenodd" clip-rule="evenodd" d="M106.689 133.16C96.9166 140.298 94.8787 151.638 100.401 159.712C108.335 171.397 125.692 167.527 130.208 161.769L106.689 133.16Z" fill="url(#paint22_radial_26_28677)"/>
    <path style="mix-blend-mode:screen" d="M87.7417 171.28C95.5536 180.942 111.09 181.333 122.443 172.154C133.796 162.975 136.666 147.701 128.854 138.039C121.043 128.377 105.506 127.986 94.1534 137.166C82.8004 146.345 79.9298 161.619 87.7417 171.28Z" fill="url(#paint23_radial_26_28677)"/>
    <path fill-rule="evenodd" clip-rule="evenodd" d="M108.981 126.121L103.69 132.823C103.69 132.823 105.405 141.431 113.549 151.504C121.693 161.578 127.991 165.62 127.991 165.62L137.798 161.762L108.981 126.121Z" fill="url(#paint24_radial_26_28677)"/>
    <path style="mix-blend-mode:multiply" opacity="0.71" fill-rule="evenodd" clip-rule="evenodd" d="M103.69 132.823C114.505 142.348 130.409 160.31 129.693 164.983L137.804 161.769L108.981 126.121L103.69 132.823Z" fill="url(#paint25_linear_26_28677)"/>
    <path fill-rule="evenodd" clip-rule="evenodd" d="M198.633 141.36C198.633 141.36 193.738 143.997 186.314 147.492C172.956 153.761 151.429 162.783 135.423 164.203C128.363 158.151 121.875 151.461 116.042 144.219C111.391 138.287 107.355 131.737 105.978 125.703C105.978 125.703 120.663 94.7484 141.149 70.3096L198.633 141.36Z" fill="url(#paint26_linear_26_28677)"/>
    <path style="mix-blend-mode:multiply" opacity="0.71" fill-rule="evenodd" clip-rule="evenodd" d="M198.633 141.36C198.633 141.36 193.738 143.997 186.314 147.492C166.897 121.588 142.23 98.1972 132.952 99.6534C123.674 101.11 110.633 123.999 112.154 132.533C112.815 136.612 114.128 140.557 116.042 144.219C111.391 138.287 107.355 131.737 105.978 125.703C105.978 125.703 120.663 94.7484 141.149 70.3096L198.633 141.36Z" fill="url(#paint27_linear_26_28677)"/>
    <path fill-rule="evenodd" clip-rule="evenodd" d="M187.158 101.875C159.78 65.3017 145.03 59.9152 145.03 59.9152C145.03 59.9152 143.18 73.5256 170.645 106.745C198.11 139.965 209.735 139.943 209.735 139.943C209.735 139.943 204.1 124.522 187.158 101.875Z" fill="url(#paint28_linear_26_28677)"/>
    <path fill-rule="evenodd" clip-rule="evenodd" d="M205.239 132.674C189.497 122.211 175.799 108.961 164.818 93.5749C158.732 85.0763 153.756 75.8354 150.011 66.0763C150.011 66.0763 181.741 40.2153 208.758 71.9807C211.514 75.1745 213.868 78.6949 215.767 82.4628C229.346 109.852 205.239 132.674 205.239 132.674Z" fill="url(#paint29_radial_26_28677)"/>
    <path style="mix-blend-mode:multiply" opacity="0.71" fill-rule="evenodd" clip-rule="evenodd" d="M215.773 82.4701L214.254 82.3897C209.155 82.2719 192.271 63.0676 192.271 63.0676C192.271 63.0676 186.303 58.5036 174.924 63.1604C163.546 67.8173 159.432 79.4664 164.824 93.5822C158.738 85.0836 153.762 75.8427 150.017 66.0836C150.017 66.0836 181.747 40.2226 208.763 71.988C211.52 75.1818 213.874 78.7022 215.773 82.4701Z" fill="url(#paint30_linear_26_28677)"/>
    <path style="mix-blend-mode:screen" opacity="0.5" fill-rule="evenodd" clip-rule="evenodd" d="M201.021 105.386C193.124 111.771 180.891 109.752 173.682 100.837C166.474 91.9213 167.061 79.5372 174.959 73.1519C182.856 66.7667 197.22 66.3714 204.405 75.2577C211.59 84.144 208.918 99.0005 201.021 105.386Z" fill="url(#paint31_linear_26_28677)"/>
    <path fill-rule="evenodd" clip-rule="evenodd" d="M197.918 103.061C191.456 108.285 182.447 106.193 176.571 98.9254C170.695 91.6582 170.145 81.9871 176.635 76.7391C183.126 71.4912 193.095 73.1227 199.019 80.4485C204.942 87.7744 204.386 97.8308 197.918 103.061Z" fill="#2B1F54"/>
    <path fill-rule="evenodd" clip-rule="evenodd" d="M194.855 99.2735C190.255 102.993 181.901 102.806 177.713 97.6262C173.526 92.4468 175.091 84.239 179.692 80.5193C184.292 76.7995 191.43 77.9704 195.618 83.1498C199.805 88.3292 199.463 95.5478 194.855 99.2735Z" fill="#151820"/>
    <path d="M190.306 92.1812C190.973 92.1712 191.627 91.9932 192.207 91.6637C192.787 91.3342 193.275 90.8639 193.626 90.2961C193.976 89.7283 194.178 89.0814 194.212 88.4151C194.246 87.7488 194.112 87.0846 193.822 86.4838L194.676 85.7608C194.877 85.5906 195.002 85.3476 195.024 85.0852C195.045 84.8228 194.962 84.5625 194.792 84.3616C194.622 84.1607 194.379 84.0356 194.116 84.0138C193.854 83.9921 193.593 84.0755 193.393 84.2457L192.635 84.8873L191.779 83.8772L192.537 83.2356C192.738 83.0654 192.863 82.8224 192.885 82.56C192.906 82.2976 192.823 82.0373 192.653 81.8363C192.483 81.6354 192.24 81.5103 191.977 81.4886C191.715 81.4669 191.455 81.5503 191.254 81.7204L190.496 82.3621L189.213 80.847C189.043 80.646 188.8 80.521 188.537 80.4992C188.275 80.4775 188.014 80.5609 187.814 80.7311C187.613 80.9012 187.487 81.1443 187.466 81.4067C187.444 81.6691 187.527 81.9294 187.698 82.1303L187.911 82.3828L179.831 89.2272L179.617 88.9747C179.447 88.7738 179.204 88.6487 178.941 88.627C178.679 88.6052 178.419 88.6886 178.218 88.8588C178.017 89.029 177.892 89.272 177.87 89.5344C177.848 89.7968 177.932 90.0571 178.102 90.258L179.385 91.7732L178.627 92.4149C178.427 92.585 178.301 92.8281 178.28 93.0905C178.258 93.3529 178.341 93.6132 178.512 93.8141C178.682 94.015 178.925 94.1401 179.187 94.1618C179.45 94.1836 179.71 94.1002 179.911 93.93L180.668 93.2883L181.524 94.2984L180.766 94.9401C180.565 95.1103 180.44 95.3533 180.419 95.6157C180.397 95.8781 180.48 96.1384 180.65 96.3393C180.821 96.5402 181.064 96.6653 181.326 96.6871C181.588 96.7088 181.849 96.6254 182.05 96.4552L182.807 95.8136C183.424 96.5414 184.266 97.0435 185.199 97.2408C186.133 97.4381 187.106 97.3194 187.964 96.9035C188.823 96.4875 189.519 95.7978 189.943 94.943C190.367 94.0881 190.495 93.1166 190.306 92.1812ZM191.53 89.7267C191.128 90.0671 190.607 90.2339 190.082 90.1904C189.558 90.1469 189.072 89.8967 188.731 89.4949L186.165 86.4646L189.195 83.898L191.761 86.9282C192.102 87.3301 192.269 87.8507 192.225 88.3755C192.182 88.9003 191.932 89.3864 191.53 89.7267ZM184.322 94.5302L181.114 90.7424L184.649 87.7479L187.858 91.5358C188.255 92.0046 188.449 92.612 188.399 93.2243C188.348 93.8365 188.056 94.4036 187.587 94.8007C187.118 95.1978 186.511 95.3924 185.899 95.3416C185.287 95.2909 184.719 94.9991 184.322 94.5302Z" fill="url(#paint32_linear_26_28677)"/>
    <path style="mix-blend-mode:multiply" opacity="0.5" fill-rule="evenodd" clip-rule="evenodd" d="M177.375 76.141L177.895 82.4326C177.895 82.4326 183.753 81.7063 189.777 89.1567C195.896 96.7243 194.071 99.8471 194.071 99.8471L201.252 99.0933C201.252 99.0933 206.445 90.5328 198.98 80.4312C191.515 70.3296 179.514 73.2726 177.375 76.141Z" fill="url(#paint33_linear_26_28677)"/>
    <path fill-rule="evenodd" clip-rule="evenodd" d="M142.385 82.5519C141.415 82.9418 140.365 83.0926 139.324 82.9915L139.173 82.9687C135.961 82.4881 133.84 79.3696 133.794 76.3169C133.75 75.276 133.999 74.2436 134.513 73.3375C135.027 72.4313 135.785 71.6879 136.702 71.1919L142.385 82.5519Z" fill="url(#paint34_linear_26_28677)"/>
    <path fill-rule="evenodd" clip-rule="evenodd" d="M159.555 106.02C158.098 106.617 156.521 106.858 154.952 106.725C150.2 106.242 147.23 101.775 146.827 97.5451C146.562 94.9246 147.256 92.3521 149.102 90.8594L159.555 106.02Z" fill="url(#paint35_linear_26_28677)"/>
    <path fill-rule="evenodd" clip-rule="evenodd" d="M181.19 130.53C180.439 131.139 179.536 131.53 178.578 131.661C174.903 132.209 170.443 129.225 168.965 125.27C168.525 124.144 168.366 122.927 168.503 121.725C168.639 120.523 169.067 119.372 169.749 118.373L181.19 130.53Z" fill="url(#paint36_linear_26_28677)"/>
    <path fill-rule="evenodd" clip-rule="evenodd" d="M196.012 147.004C192.476 147.441 187.732 145.485 186.442 141.416C186.376 141.215 186.325 141.002 186.273 140.789C185.968 139.114 186.133 137.388 186.748 135.801L199.268 145.668C198.365 146.468 197.217 146.939 196.012 147.004Z" fill="url(#paint37_linear_26_28677)"/>
    <path style="mix-blend-mode:multiply" opacity="0.71" fill-rule="evenodd" clip-rule="evenodd" d="M142.385 82.5519C141.415 82.9418 140.365 83.0926 139.324 82.9915L139.173 82.9687C140.189 81.7835 136.542 76.3732 133.794 76.3169C133.75 75.276 133.999 74.2436 134.513 73.3375C135.027 72.4313 135.785 71.6879 136.702 71.1919L142.385 82.5519Z" fill="url(#paint38_linear_26_28677)"/>
    <path style="mix-blend-mode:multiply" opacity="0.71" fill-rule="evenodd" clip-rule="evenodd" d="M159.555 106.02C158.098 106.617 156.521 106.858 154.952 106.725C156.698 104.853 148.466 96.3654 146.834 97.5392C146.569 94.9187 147.264 92.3461 149.11 90.8535L159.555 106.02Z" fill="url(#paint39_linear_26_28677)"/>
    <path style="mix-blend-mode:multiply" opacity="0.71" fill-rule="evenodd" clip-rule="evenodd" d="M181.19 130.53C180.439 131.139 179.536 131.53 178.578 131.661C178.606 129.942 171.381 124.153 168.958 125.276C168.518 124.15 168.359 122.933 168.495 121.731C168.632 120.529 169.06 119.378 169.742 118.379L181.19 130.53Z" fill="url(#paint40_linear_26_28677)"/>
    <path style="mix-blend-mode:multiply" opacity="0.71" fill-rule="evenodd" clip-rule="evenodd" d="M196.012 147.004C197.09 144.292 189.764 140.971 186.442 141.416L186.273 140.789C185.968 139.114 186.133 137.388 186.748 135.801L199.268 145.668C198.365 146.468 197.217 146.939 196.012 147.004Z" fill="url(#paint41_linear_26_28677)"/>
    <path fill-rule="evenodd" clip-rule="evenodd" d="M145.03 59.9152C141.017 61.9164 137.49 64.7685 134.693 68.2728C134.693 68.2728 146.886 108.691 200.261 147.615C200.261 147.615 203.906 146.788 209.741 139.95C209.741 139.95 187.012 127.737 166.78 98.9673C146.547 70.1977 145.03 59.9152 145.03 59.9152Z" fill="url(#paint42_radial_26_28677)"/>
    <path fill-rule="evenodd" clip-rule="evenodd" d="M200.186 64.9907L205.735 61.11L218.704 77.4347L214.239 82.4015C207.873 78.1842 202.965 72.1035 200.186 64.9907Z" fill="url(#paint43_radial_26_28677)"/>
    <path fill-rule="evenodd" clip-rule="evenodd" d="M218.704 77.4347C217.832 78.1396 214.092 74.9368 210.467 70.4534C206.842 65.9699 204.856 61.8208 205.735 61.11C206.614 60.3992 210.014 63.4052 213.639 67.8886C217.264 72.372 219.583 76.7239 218.704 77.4347Z" fill="url(#paint44_linear_26_28677)"/>
    <path fill-rule="evenodd" clip-rule="evenodd" d="M209.17 65.6135C209.17 65.6135 210.08 70.754 214.739 72.875C214.739 72.875 224.352 63.9517 222.258 61.3921C220.164 58.8326 209.17 65.6135 209.17 65.6135Z" fill="url(#paint45_radial_26_28677)"/>
    <path fill-rule="evenodd" clip-rule="evenodd" d="M221.331 62.5535C218.096 63.7517 218.401 66.631 219.65 65.7182C220.898 64.8054 222.161 62.2461 221.331 62.5535Z" fill="white"/>
    <path style="mix-blend-mode:screen" opacity="0.64" fill-rule="evenodd" clip-rule="evenodd" d="M220.152 60.841C217.469 66.5121 209.377 65.4947 209.377 65.4947C209.377 65.4947 215.01 62.1521 217.339 61.5412C218.263 61.2572 219.203 61.0235 220.152 60.841Z" fill="url(#paint46_linear_26_28677)"/>
    <path style="mix-blend-mode:screen" d="M214.56 68.7431C215.685 70.1349 218.729 69.5394 221.359 67.4131C223.989 65.2867 225.209 62.4347 224.083 61.0429C222.958 59.651 219.914 60.2465 217.284 62.3729C214.654 64.4992 213.434 67.3513 214.56 68.7431Z" fill="url(#paint47_radial_26_28677)"/>
    <path style="mix-blend-mode:screen" fill-rule="evenodd" clip-rule="evenodd" d="M212.617 73.1127L215.859 76.0885L211.393 80.3049L207.422 76.5619L212.617 73.1127Z" fill="url(#paint48_radial_26_28677)"/>
    <path style="mix-blend-mode:screen" fill-rule="evenodd" clip-rule="evenodd" d="M197.284 131.45C197.284 131.45 192.568 127.716 187.537 123.036L178.812 130.091C178.812 130.091 185.69 136.306 189.227 139.152L197.284 131.45Z" fill="url(#paint49_radial_26_28677)"/>
    <path fill-rule="evenodd" clip-rule="evenodd" d="M153.865 126.673L149.662 120.306L71.6654 187.344L73.3654 189.446L153.865 126.673Z" fill="url(#paint50_linear_26_28677)"/>
    <path fill-rule="evenodd" clip-rule="evenodd" d="M149.662 120.306L153.865 126.673L159.114 121.327L155.702 117.107L149.662 120.306Z" fill="url(#paint51_radial_26_28677)"/>
    <path style="mix-blend-mode:multiply" opacity="0.71" fill-rule="evenodd" clip-rule="evenodd" d="M155.708 117.115C155.708 117.115 142.26 119.301 110.194 135.742L114.527 142.39L108.472 144.161L113.595 151.576L149.677 120.355L155.708 117.115Z" fill="url(#paint52_linear_26_28677)"/>
    <path style="mix-blend-mode:screen" fill-rule="evenodd" clip-rule="evenodd" d="M162.778 93.1647C162.778 93.1647 180.113 121.661 205.589 137.407C205.589 137.407 184.662 123.931 162.778 93.1647Z" fill="url(#paint53_linear_26_28677)"/>
    <path style="mix-blend-mode:screen" opacity="0.2" fill-rule="evenodd" clip-rule="evenodd" d="M135.423 164.203C169.042 157.265 193.592 132.848 161.188 138.876C146.366 141.641 123.768 153.116 123.768 153.116L135.423 164.203Z" fill="url(#paint54_linear_26_28677)"/>
    <path style="mix-blend-mode:multiply" opacity="0.71" fill-rule="evenodd" clip-rule="evenodd" d="M139.817 80.1698C145.296 80.6299 150.732 81.4988 156.081 82.7692L164.812 93.5675C164.812 93.5675 155.402 80.5805 150.005 66.0689L152.202 64.4861C152.202 64.4861 146.82 59.9574 145.018 59.9005C145.018 59.9005 137.213 63.8973 134.681 68.2582L139.817 80.1698Z" fill="url(#paint55_linear_26_28677)"/>
    <path fill-rule="evenodd" clip-rule="evenodd" d="M168.292 138.597C164.092 137.583 157.927 138.799 155.159 140.335C154.064 140.929 170.506 139.133 168.292 138.597Z" fill="white"/>
    <path fill-rule="evenodd" clip-rule="evenodd" d="M215.199 89.088C213.135 86.2503 211.668 93.5306 213.567 94.636C215.466 95.7414 216.398 90.7356 215.199 89.088Z" fill="white"/>
    <path style="mix-blend-mode:screen" d="M205.224 98.2679C208.27 102.035 213.792 102.619 217.559 99.5737C221.326 96.5281 221.911 91.0056 218.865 87.2388C215.819 83.472 210.297 82.8874 206.53 85.933C202.763 88.9786 202.179 94.5011 205.224 98.2679Z" fill="url(#paint56_radial_26_28677)"/>
    <defs>
        <linearGradient id="paint0_linear_26_28677" x1="86.029" y1="191.261" x2="80.491" y2="185.599" gradientUnits="userSpaceOnUse">
            <stop offset="0.02" stop-color="#FDEA00"/>
            <stop offset="0.51" stop-color="#FFD900"/>
            <stop offset="1" stop-color="#FCC700"/>
        </linearGradient>
        <linearGradient id="paint1_linear_26_28677" x1="102.083" y1="194.017" x2="94.2841" y2="186.044" gradientUnits="userSpaceOnUse">
            <stop stop-color="#FCEA09"/>
            <stop offset="0.52" stop-color="#F59A00"/>
            <stop offset="1" stop-color="#EF7A00"/>
        </linearGradient>
        <linearGradient id="paint2_linear_26_28677" x1="81.0434" y1="167.722" x2="72.4472" y2="158.933" gradientUnits="userSpaceOnUse">
            <stop stop-color="#FCEA09"/>
            <stop offset="0.52" stop-color="#F59A00"/>
            <stop offset="1" stop-color="#EF7A00"/>
        </linearGradient>
        <linearGradient id="paint3_linear_26_28677" x1="115.772" y1="151.038" x2="66.8112" y2="198.926" gradientUnits="userSpaceOnUse">
            <stop stop-color="#FFE500"/>
            <stop offset="0.03" stop-color="#FEDD00"/>
            <stop offset="0.26" stop-color="#F59F03"/>
            <stop offset="0.43" stop-color="#EF7905"/>
            <stop offset="0.52" stop-color="#ED6A06"/>
            <stop offset="0.62" stop-color="#EA6408"/>
            <stop offset="0.75" stop-color="#E1530D"/>
            <stop offset="0.91" stop-color="#D23716"/>
            <stop offset="0.98" stop-color="#CA281B"/>
        </linearGradient>
        <linearGradient id="paint4_linear_26_28677" x1="116.915" y1="151.095" x2="77.1367" y2="190.001" gradientUnits="userSpaceOnUse">
            <stop offset="0.1" stop-color="#FDEA00"/>
            <stop offset="0.45" stop-color="#F59A00"/>
            <stop offset="1" stop-color="#EF7A00"/>
        </linearGradient>
        <linearGradient id="paint5_linear_26_28677" x1="117.291" y1="149.938" x2="65.1943" y2="200.893" gradientUnits="userSpaceOnUse">
            <stop offset="0.02" stop-color="white"/>
            <stop offset="0.07" stop-color="#FEFCE0"/>
            <stop offset="0.16" stop-color="#FDF8B1"/>
            <stop offset="0.25" stop-color="#FCF487"/>
            <stop offset="0.35" stop-color="#FBF064"/>
            <stop offset="0.45" stop-color="#FAEE47"/>
            <stop offset="0.56" stop-color="#FAEC31"/>
            <stop offset="0.68" stop-color="#F9EA21"/>
            <stop offset="0.81" stop-color="#F9E918"/>
            <stop offset="1" stop-color="#F9E915"/>
        </linearGradient>
        <linearGradient id="paint6_linear_26_28677" x1="132.388" y1="100.109" x2="107.954" y2="69.8902" gradientUnits="userSpaceOnUse">
            <stop stop-color="#5B58A3"/>
            <stop offset="0.44" stop-color="#5F59A3"/>
            <stop offset="0.85" stop-color="#6A5CA2"/>
            <stop offset="0.99" stop-color="#705EA2"/>
        </linearGradient>
        <linearGradient id="paint7_linear_26_28677" x1="77.8816" y1="119.198" x2="67.9305" y2="106.891" gradientUnits="userSpaceOnUse">
            <stop stop-color="#5B58A3"/>
            <stop offset="0.44" stop-color="#5F59A3"/>
            <stop offset="0.85" stop-color="#6A5CA2"/>
            <stop offset="0.99" stop-color="#705EA2"/>
        </linearGradient>
        <radialGradient id="paint8_radial_26_28677" cx="0" cy="0" r="1" gradientUnits="userSpaceOnUse" gradientTransform="translate(131.115 45.567) rotate(-128.957) scale(75.3106 75.3106)">
            <stop stop-color="#FFD5BD"/>
            <stop offset="0.1" stop-color="#F8D0BF"/>
            <stop offset="0.25" stop-color="#E5C2C6"/>
            <stop offset="0.43" stop-color="#C5ABD2"/>
            <stop offset="0.63" stop-color="#9A8CE1"/>
            <stop offset="0.75" stop-color="#7A75ED"/>
            <stop offset="0.97" stop-color="#7A82ED"/>
        </radialGradient>
        <linearGradient id="paint9_linear_26_28677" x1="68.4803" y1="103.66" x2="60.8985" y2="94.2828" gradientUnits="userSpaceOnUse">
            <stop stop-color="#B3A6DB"/>
            <stop offset="0.41" stop-color="#A685BE"/>
            <stop offset="0.77" stop-color="#9D71AB"/>
            <stop offset="1" stop-color="#9A69A4"/>
        </linearGradient>
        <linearGradient id="paint10_linear_26_28677" x1="48.6933" y1="116.303" x2="42.8649" y2="109.094" gradientUnits="userSpaceOnUse">
            <stop stop-color="#B3A6DB"/>
            <stop offset="0.41" stop-color="#A685BE"/>
            <stop offset="0.77" stop-color="#9D71AB"/>
            <stop offset="1" stop-color="#9A69A4"/>
        </linearGradient>
        <linearGradient id="paint11_linear_26_28677" x1="59.2393" y1="115.081" x2="55.2589" y2="110.158" gradientUnits="userSpaceOnUse">
            <stop stop-color="#B3A6DB"/>
            <stop offset="0.41" stop-color="#A685BE"/>
            <stop offset="0.77" stop-color="#9D71AB"/>
            <stop offset="1" stop-color="#9A69A4"/>
        </linearGradient>
        <linearGradient id="paint12_linear_26_28677" x1="92.9883" y1="78.7559" x2="87.1776" y2="71.5692" gradientUnits="userSpaceOnUse">
            <stop stop-color="white"/>
            <stop offset="1" stop-color="#623964"/>
        </linearGradient>
        <linearGradient id="paint13_linear_26_28677" x1="112.809" y1="96.1678" x2="125.295" y2="111.611" gradientUnits="userSpaceOnUse">
            <stop stop-color="#CC87CF"/>
            <stop offset="0.09" stop-color="#C781CB"/>
            <stop offset="0.69" stop-color="#A65AAF"/>
            <stop offset="1" stop-color="#9A4BA4"/>
        </linearGradient>
        <linearGradient id="paint14_linear_26_28677" x1="167.933" y1="144.072" x2="192.366" y2="174.291" gradientUnits="userSpaceOnUse">
            <stop stop-color="#5B58A3"/>
            <stop offset="0.44" stop-color="#5F59A3"/>
            <stop offset="0.85" stop-color="#6A5CA2"/>
            <stop offset="0.99" stop-color="#705EA2"/>
        </linearGradient>
        <linearGradient id="paint15_linear_26_28677" x1="137.86" y1="193.38" x2="147.805" y2="205.68" gradientUnits="userSpaceOnUse">
            <stop stop-color="#5B58A3"/>
            <stop offset="0.44" stop-color="#5F59A3"/>
            <stop offset="0.85" stop-color="#6A5CA2"/>
            <stop offset="0.99" stop-color="#705EA2"/>
        </linearGradient>
        <radialGradient id="paint16_radial_26_28677" cx="0" cy="0" r="1" gradientUnits="userSpaceOnUse" gradientTransform="translate(195.305 181.147) rotate(51.0432) scale(75.3106 75.3106)">
            <stop stop-color="#FFD5BD"/>
            <stop offset="0.1" stop-color="#F8D0BF"/>
            <stop offset="0.25" stop-color="#E5C2C6"/>
            <stop offset="0.43" stop-color="#C5ABD2"/>
            <stop offset="0.63" stop-color="#9A8CE1"/>
            <stop offset="0.75" stop-color="#7A75ED"/>
            <stop offset="0.97" stop-color="#7A82ED"/>
        </radialGradient>
        <linearGradient id="paint17_linear_26_28677" x1="158.468" y1="201.457" x2="163.87" y2="208.138" gradientUnits="userSpaceOnUse">
            <stop stop-color="#B3A6DB"/>
            <stop offset="0.41" stop-color="#A685BE"/>
            <stop offset="0.77" stop-color="#9D71AB"/>
            <stop offset="1" stop-color="#9A69A4"/>
        </linearGradient>
        <linearGradient id="paint18_linear_26_28677" x1="134.58" y1="222.528" x2="140.403" y2="229.729" gradientUnits="userSpaceOnUse">
            <stop stop-color="#B3A6DB"/>
            <stop offset="0.41" stop-color="#A685BE"/>
            <stop offset="0.77" stop-color="#9D71AB"/>
            <stop offset="1" stop-color="#9A69A4"/>
        </linearGradient>
        <linearGradient id="paint19_linear_26_28677" x1="137.396" y1="211.746" x2="139.523" y2="214.376" gradientUnits="userSpaceOnUse">
            <stop stop-color="#B3A6DB"/>
            <stop offset="0.41" stop-color="#A685BE"/>
            <stop offset="0.77" stop-color="#9D71AB"/>
            <stop offset="1" stop-color="#9A69A4"/>
        </linearGradient>
        <linearGradient id="paint20_linear_26_28677" x1="180.569" y1="187.076" x2="186.38" y2="194.263" gradientUnits="userSpaceOnUse">
            <stop stop-color="white"/>
            <stop offset="1" stop-color="#623964"/>
        </linearGradient>
        <linearGradient id="paint21_linear_26_28677" x1="155.185" y1="149.193" x2="166.902" y2="163.684" gradientUnits="userSpaceOnUse">
            <stop stop-color="#CC87CF"/>
            <stop offset="0.09" stop-color="#C781CB"/>
            <stop offset="0.69" stop-color="#A65AAF"/>
            <stop offset="1" stop-color="#9A4BA4"/>
        </linearGradient>
        <radialGradient id="paint22_radial_26_28677" cx="0" cy="0" r="1" gradientUnits="userSpaceOnUse" gradientTransform="translate(118.984 151.169) rotate(51.0432) scale(19.407 19.407)">
            <stop offset="0.01" stop-color="#FFCC00"/>
            <stop offset="0.22" stop-color="#FEC902"/>
            <stop offset="0.41" stop-color="#FCBE08"/>
            <stop offset="0.58" stop-color="#F8AD13"/>
            <stop offset="0.75" stop-color="#F29422"/>
            <stop offset="0.91" stop-color="#EA7435"/>
            <stop offset="1" stop-color="#E55E42"/>
        </radialGradient>
        <radialGradient id="paint23_radial_26_28677" cx="0" cy="0" r="1" gradientUnits="userSpaceOnUse" gradientTransform="translate(107.709 153.931) rotate(51.0432) scale(22.4698 26.435)">
            <stop offset="0.01" stop-color="#89542D"/>
            <stop offset="0.17" stop-color="#4E2268"/>
            <stop offset="0.44" stop-color="#2C143B"/>
            <stop offset="0.67" stop-color="#14091B"/>
            <stop offset="0.87" stop-color="#050207"/>
            <stop offset="1"/>
        </radialGradient>
        <radialGradient id="paint24_radial_26_28677" cx="0" cy="0" r="1" gradientUnits="userSpaceOnUse" gradientTransform="translate(121.308 154.014) rotate(51.0432) scale(16.7974 16.7975)">
            <stop stop-color="#B1B5BD"/>
            <stop offset="0.14" stop-color="#ABAEBD"/>
            <stop offset="0.34" stop-color="#9B9BBF"/>
            <stop offset="0.57" stop-color="#817CC0"/>
            <stop offset="0.75" stop-color="#685EC2"/>
            <stop offset="0.97" stop-color="#7A75D8"/>
        </radialGradient>
        <linearGradient id="paint25_linear_26_28677" x1="105.743" y1="128.74" x2="134.566" y2="164.387" gradientUnits="userSpaceOnUse">
            <stop stop-color="#9A69A4"/>
            <stop offset="0.13" stop-color="#A275AB"/>
            <stop offset="0.38" stop-color="#B795BF"/>
            <stop offset="0.69" stop-color="#DAC8DD"/>
            <stop offset="1" stop-color="white"/>
        </linearGradient>
        <linearGradient id="paint26_linear_26_28677" x1="115.5" y1="91.0601" x2="172.955" y2="162.121" gradientUnits="userSpaceOnUse">
            <stop stop-color="#860057"/>
            <stop offset="0.03" stop-color="#8C0555"/>
            <stop offset="0.19" stop-color="#A9224B"/>
            <stop offset="0.36" stop-color="#C13842"/>
            <stop offset="0.54" stop-color="#D1483D"/>
            <stop offset="0.74" stop-color="#DB5139"/>
            <stop offset="0.99" stop-color="#DE5438"/>
        </linearGradient>
        <linearGradient id="paint27_linear_26_28677" x1="115.507" y1="91.0542" x2="172.963" y2="162.115" gradientUnits="userSpaceOnUse">
            <stop stop-color="#9A69A4"/>
            <stop offset="0.13" stop-color="#A275AB"/>
            <stop offset="0.38" stop-color="#B795BF"/>
            <stop offset="0.69" stop-color="#DAC8DD"/>
            <stop offset="1" stop-color="white"/>
        </linearGradient>
        <linearGradient id="paint28_linear_26_28677" x1="133.73" y1="48.2621" x2="198.441" y2="128.297" gradientUnits="userSpaceOnUse">
            <stop offset="0.03" stop-color="#7A82ED"/>
            <stop offset="0.21" stop-color="#7A75ED"/>
            <stop offset="0.99" stop-color="#FDD3BE"/>
            <stop offset="1" stop-color="#FFD5BD"/>
        </linearGradient>
        <radialGradient id="paint29_radial_26_28677" cx="0" cy="0" r="1" gradientUnits="userSpaceOnUse" gradientTransform="translate(219.392 81.3728) rotate(51.0432) scale(61.6315 61.6314)">
            <stop stop-color="#FFD5BD"/>
            <stop offset="0.1" stop-color="#F8D0BF"/>
            <stop offset="0.25" stop-color="#E5C2C6"/>
            <stop offset="0.43" stop-color="#C5ABD2"/>
            <stop offset="0.63" stop-color="#9A8CE1"/>
            <stop offset="0.75" stop-color="#7A75ED"/>
            <stop offset="0.97" stop-color="#7A82ED"/>
        </radialGradient>
        <linearGradient id="paint30_linear_26_28677" x1="182.842" y1="82.8424" x2="183.025" y2="54.2243" gradientUnits="userSpaceOnUse">
            <stop stop-color="#9A69A4"/>
            <stop offset="0.13" stop-color="#A275AB"/>
            <stop offset="0.38" stop-color="#B795BF"/>
            <stop offset="0.69" stop-color="#DAC8DD"/>
            <stop offset="1" stop-color="white"/>
        </linearGradient>
        <linearGradient id="paint31_linear_26_28677" x1="175.904" y1="99.0892" x2="210.921" y2="70.7762" gradientUnits="userSpaceOnUse">
            <stop stop-color="white"/>
            <stop offset="1"/>
        </linearGradient>
        <linearGradient id="paint32_linear_26_28677" x1="194.15" y1="83.6033" x2="180.008" y2="95.5811" gradientUnits="userSpaceOnUse">
            <stop stop-color="#F9B813"/>
            <stop offset="1" stop-color="#EE6D06"/>
        </linearGradient>
        <linearGradient id="paint33_linear_26_28677" x1="184.394" y1="91.5343" x2="190.255" y2="86.7957" gradientUnits="userSpaceOnUse">
            <stop stop-color="#E7E3F4"/>
            <stop offset="0.07" stop-color="#DFD6EC"/>
            <stop offset="0.37" stop-color="#C1A7CD"/>
            <stop offset="0.64" stop-color="#AC85B7"/>
            <stop offset="0.86" stop-color="#9F71A9"/>
            <stop offset="1" stop-color="#9A69A4"/>
        </linearGradient>
        <linearGradient id="paint34_linear_26_28677" x1="140.564" y1="75.9684" x2="135.106" y2="80.3812" gradientUnits="userSpaceOnUse">
            <stop offset="0.03" stop-color="#7A82ED"/>
            <stop offset="0.21" stop-color="#7A75ED"/>
            <stop offset="0.99" stop-color="#FDD3BE"/>
            <stop offset="1" stop-color="#FFD5BD"/>
        </linearGradient>
        <linearGradient id="paint35_linear_26_28677" x1="154.879" y1="97.9889" x2="148.762" y2="102.935" gradientUnits="userSpaceOnUse">
            <stop offset="0.03" stop-color="#7A82ED"/>
            <stop offset="0.21" stop-color="#7A75ED"/>
            <stop offset="0.99" stop-color="#FDD3BE"/>
            <stop offset="1" stop-color="#FFD5BD"/>
        </linearGradient>
        <linearGradient id="paint36_linear_26_28677" x1="175.96" y1="124.062" x2="170.766" y2="128.261" gradientUnits="userSpaceOnUse">
            <stop offset="0.03" stop-color="#7A82ED"/>
            <stop offset="0.21" stop-color="#7A75ED"/>
            <stop offset="0.99" stop-color="#FDD3BE"/>
            <stop offset="1" stop-color="#FFD5BD"/>
        </linearGradient>
        <linearGradient id="paint37_linear_26_28677" x1="194.367" y1="139.575" x2="188.301" y2="144.48" gradientUnits="userSpaceOnUse">
            <stop offset="0.03" stop-color="#7A82ED"/>
            <stop offset="0.21" stop-color="#7A75ED"/>
            <stop offset="0.99" stop-color="#FDD3BE"/>
            <stop offset="1" stop-color="#FFD5BD"/>
        </linearGradient>
        <linearGradient id="paint38_linear_26_28677" x1="134.487" y1="72.813" x2="142.371" y2="82.5637" gradientUnits="userSpaceOnUse">
            <stop stop-color="#9A69A4"/>
            <stop offset="0.13" stop-color="#A275AB"/>
            <stop offset="0.38" stop-color="#B795BF"/>
            <stop offset="0.69" stop-color="#DAC8DD"/>
            <stop offset="1" stop-color="white"/>
        </linearGradient>
        <linearGradient id="paint39_linear_26_28677" x1="146.781" y1="92.7238" x2="158.332" y2="107.009" gradientUnits="userSpaceOnUse">
            <stop stop-color="#9A69A4"/>
            <stop offset="0.13" stop-color="#A275AB"/>
            <stop offset="0.38" stop-color="#B795BF"/>
            <stop offset="0.69" stop-color="#DAC8DD"/>
            <stop offset="1" stop-color="white"/>
        </linearGradient>
        <linearGradient id="paint40_linear_26_28677" x1="168.313" y1="119.534" x2="178.78" y2="132.479" gradientUnits="userSpaceOnUse">
            <stop stop-color="#9A69A4"/>
            <stop offset="0.13" stop-color="#A275AB"/>
            <stop offset="0.38" stop-color="#B795BF"/>
            <stop offset="0.69" stop-color="#DAC8DD"/>
            <stop offset="1" stop-color="white"/>
        </linearGradient>
        <linearGradient id="paint41_linear_26_28677" x1="186.624" y1="135.828" x2="196.416" y2="147.938" gradientUnits="userSpaceOnUse">
            <stop stop-color="#9A69A4"/>
            <stop offset="0.13" stop-color="#A275AB"/>
            <stop offset="0.38" stop-color="#B795BF"/>
            <stop offset="0.69" stop-color="#DAC8DD"/>
            <stop offset="1" stop-color="white"/>
        </linearGradient>
        <radialGradient id="paint42_radial_26_28677" cx="0" cy="0" r="1" gradientUnits="userSpaceOnUse" gradientTransform="translate(176.234 119.951) rotate(51.0432) scale(46.3602 46.3601)">
            <stop stop-color="#B1B5BD"/>
            <stop offset="0.14" stop-color="#ABAEBD"/>
            <stop offset="0.34" stop-color="#9B9BBF"/>
            <stop offset="0.57" stop-color="#817CC0"/>
            <stop offset="0.75" stop-color="#685EC2"/>
            <stop offset="0.97" stop-color="#7A75D8"/>
        </radialGradient>
        <radialGradient id="paint43_radial_26_28677" cx="0" cy="0" r="1" gradientUnits="userSpaceOnUse" gradientTransform="translate(212.71 76.9744) rotate(51.0432) scale(13.1798)">
            <stop stop-color="#B1B5BD"/>
            <stop offset="0.14" stop-color="#ABAEBD"/>
            <stop offset="0.34" stop-color="#9B9BBF"/>
            <stop offset="0.57" stop-color="#817CC0"/>
            <stop offset="0.75" stop-color="#685EC2"/>
            <stop offset="0.97" stop-color="#7A75D8"/>
        </radialGradient>
        <linearGradient id="paint44_linear_26_28677" x1="205.61" y1="61.2107" x2="218.719" y2="77.4229" gradientUnits="userSpaceOnUse">
            <stop offset="0.03" stop-color="#7A82ED"/>
            <stop offset="0.21" stop-color="#7A75ED"/>
            <stop offset="0.99" stop-color="#FDD3BE"/>
            <stop offset="1" stop-color="#FFD5BD"/>
        </linearGradient>
        <radialGradient id="paint45_radial_26_28677" cx="0" cy="0" r="1" gradientUnits="userSpaceOnUse" gradientTransform="translate(224.441 75.088) rotate(54.2768) scale(21.378 12.0803)">
            <stop stop-color="#FFD5BD"/>
            <stop offset="0.1" stop-color="#F8D0BF"/>
            <stop offset="0.25" stop-color="#E5C2C6"/>
            <stop offset="0.43" stop-color="#C5ABD2"/>
            <stop offset="0.63" stop-color="#9A8CE1"/>
            <stop offset="0.75" stop-color="#7A75ED"/>
            <stop offset="0.97" stop-color="#7A82ED"/>
        </radialGradient>
        <linearGradient id="paint46_linear_26_28677" x1="213.773" y1="61.9408" x2="216.207" y2="64.9517" gradientUnits="userSpaceOnUse">
            <stop stop-color="#623964"/>
            <stop offset="1" stop-color="#FFC209"/>
        </linearGradient>
        <radialGradient id="paint47_radial_26_28677" cx="0" cy="0" r="1" gradientUnits="userSpaceOnUse" gradientTransform="translate(217.073 62.205) rotate(51.0432) scale(3.2259 6.12094)">
            <stop offset="0.01" stop-color="#F4FF09"/>
            <stop offset="0.07" stop-color="#DFE908"/>
            <stop offset="0.27" stop-color="#9CA306"/>
            <stop offset="0.46" stop-color="#646904"/>
            <stop offset="0.63" stop-color="#393C02"/>
            <stop offset="0.78" stop-color="#1A1B01"/>
            <stop offset="0.91" stop-color="#070700"/>
            <stop offset="1"/>
        </radialGradient>
        <radialGradient id="paint48_radial_26_28677" cx="0" cy="0" r="1" gradientUnits="userSpaceOnUse" gradientTransform="translate(214.234 75.1127) rotate(51.0432) scale(5.08728 5.08728)">
            <stop stop-color="white"/>
            <stop offset="1" stop-color="#623964"/>
        </radialGradient>
        <radialGradient id="paint49_radial_26_28677" cx="0" cy="0" r="1" gradientUnits="userSpaceOnUse" gradientTransform="translate(193.358 128.543) rotate(51.0432) scale(10.3724 10.3724)">
            <stop stop-color="white"/>
            <stop offset="1" stop-color="#623964"/>
        </radialGradient>
        <linearGradient id="paint50_linear_26_28677" x1="110.354" y1="152.088" x2="115.128" y2="157.993" gradientUnits="userSpaceOnUse">
            <stop stop-color="#F6CEC0"/>
            <stop offset="0.44" stop-color="#C2A9D4"/>
            <stop offset="0.85" stop-color="#6A5CA2"/>
            <stop offset="0.99" stop-color="#705EA2"/>
        </linearGradient>
        <radialGradient id="paint51_radial_26_28677" cx="0" cy="0" r="1" gradientUnits="userSpaceOnUse" gradientTransform="translate(159.682 118.359) rotate(51.0432) scale(15.1959 15.1959)">
            <stop stop-color="#FFD5BD"/>
            <stop offset="0.1" stop-color="#F8D0BF"/>
            <stop offset="0.25" stop-color="#E5C2C6"/>
            <stop offset="0.43" stop-color="#C5ABD2"/>
            <stop offset="0.63" stop-color="#9A8CE1"/>
            <stop offset="0.75" stop-color="#7A75ED"/>
            <stop offset="0.97" stop-color="#7A82ED"/>
        </radialGradient>
        <linearGradient id="paint52_linear_26_28677" x1="125.636" y1="123.195" x2="134.722" y2="134.433" gradientUnits="userSpaceOnUse">
            <stop stop-color="#CC87CF"/>
            <stop offset="0.09" stop-color="#C781CB"/>
            <stop offset="0.69" stop-color="#A65AAF"/>
            <stop offset="1" stop-color="#9A4BA4"/>
        </linearGradient>
        <linearGradient id="paint53_linear_26_28677" x1="164.522" y1="91.7549" x2="203.076" y2="139.439" gradientUnits="userSpaceOnUse">
            <stop stop-color="white"/>
            <stop offset="1" stop-color="#623964"/>
        </linearGradient>
        <linearGradient id="paint54_linear_26_28677" x1="131.839" y1="160.535" x2="159.76" y2="143.629" gradientUnits="userSpaceOnUse">
            <stop stop-color="#623964"/>
            <stop offset="1" stop-color="#FFC209"/>
        </linearGradient>
        <linearGradient id="paint55_linear_26_28677" x1="162.212" y1="89.8424" x2="142.412" y2="68.4403" gradientUnits="userSpaceOnUse">
            <stop stop-color="#9A69A4"/>
            <stop offset="0.13" stop-color="#A275AB"/>
            <stop offset="0.38" stop-color="#B795BF"/>
            <stop offset="0.69" stop-color="#DAC8DD"/>
            <stop offset="1" stop-color="white"/>
        </linearGradient>
        <radialGradient id="paint56_radial_26_28677" cx="0" cy="0" r="1" gradientUnits="userSpaceOnUse" gradientTransform="translate(212.045 92.7533) rotate(51.0432) scale(8.77085 8.77085)">
            <stop offset="0.01" stop-color="#F4FF09"/>
            <stop offset="0.07" stop-color="#DFE908"/>
            <stop offset="0.27" stop-color="#9CA306"/>
            <stop offset="0.46" stop-color="#646904"/>
            <stop offset="0.63" stop-color="#393C02"/>
            <stop offset="0.78" stop-color="#1A1B01"/>
            <stop offset="0.91" stop-color="#070700"/>
            <stop offset="1"/>
        </radialGradient>
        <clipPath id="clip0_26_28677">
            <rect width="51.2179" height="83.3247" fill="white" transform="translate(74.5254 226.546) rotate(-134.366)"/>
        </clipPath>
    </defs>
</svg>
